<?xml version="1.0" encoding="UTF-8" standalone="no"?>
<!-- Created with Inkscape (http://www.inkscape.org/) -->

<svg
   width="39.872833mm"
   height="38.189648mm"
   viewBox="0 0 39.872833 38.189648"
   version="1.1"
   id="svg5"
   inkscape:export-filename="bitmap.svg"
   inkscape:export-xdpi="96"
   inkscape:export-ydpi="96"
   xmlns:inkscape="http://www.inkscape.org/namespaces/inkscape"
   xmlns:sodipodi="http://sodipodi.sourceforge.net/DTD/sodipodi-0.dtd"
   xmlns="http://www.w3.org/2000/svg"
   xmlns:svg="http://www.w3.org/2000/svg">
  <sodipodi:namedview
     id="namedview7"
     pagecolor="#ffffff"
     bordercolor="#000000"
     borderopacity="0.25"
     inkscape:showpageshadow="2"
     inkscape:pageopacity="0.0"
     inkscape:pagecheckerboard="0"
     inkscape:deskcolor="#d1d1d1"
     inkscape:document-units="mm"
     showgrid="false" />
  <defs
     id="defs2" />
  <g
     inkscape:label="Layer 1"
     inkscape:groupmode="layer"
     id="layer1"
     transform="translate(-71.950118,-118.25459)">
    <path
       style="fill:#ff0000;stroke-width:0.264583"
       id="path447"
       d="m 73.632059,125.09482 c 0.683646,-1.02508 1.466038,-1.97905 2.200648,-2.96723 0.591944,-0.82906 1.196491,-1.6516 1.953572,-2.33797 0.175297,-0.14061 0.363138,-0.26482 0.564161,-0.36539 0.0357,-0.0179 0.06988,-0.0419 0.109095,-0.0494 0.02397,-0.005 0.09299,0.0269 0.07158,0.0152 -0.550568,-0.30105 -1.107794,-0.58975 -1.661691,-0.88463 0.01974,0.0368 0.05259,0.0691 0.05922,0.11032 0.0913,0.56798 -0.385816,1.7943 -0.565457,2.33343 -0.377828,1.16953 -0.731647,2.34738 -1.025322,3.54102 -0.268612,1.02046 -0.304204,2.34037 1.827499,1.88672 0.640416,-0.18719 1.211794,-0.54319 1.803442,-0.84187 0.258673,-0.0826 0.479216,-0.30225 0.741082,-0.37595 0.02479,-0.007 0.09973,0.0164 0.07717,0.004 -0.550558,-0.30332 -1.111803,-0.58682 -1.667703,-0.88023 0.0208,0.0221 0.05191,0.0378 0.06237,0.0663 0.09725,0.26499 -0.04324,1.21861 -0.06911,1.52964 -0.02098,0.44489 -0.156231,0.92344 0.04547,1.34217 1.717871,1.08898 1.509929,1.34035 2.842924,0.74195 0.199043,-0.052 0.564727,-0.36083 0.762392,-0.20653 -0.543788,-0.30098 -1.078897,-0.61819 -1.63136,-0.90292 -0.04275,-0.022 0.07067,0.0677 0.09317,0.11017 0.03105,0.0587 0.04765,0.12415 0.0648,0.18827 0.06845,0.25591 0.0845,0.52231 0.106238,0.78491 0.04947,0.39418 -0.02164,0.79793 0.04967,1.18876 0.529045,1.07582 1.617999,1.31295 2.630107,1.15758 0.303027,0.004 0.588438,-0.18242 0.886208,-0.18768 -0.03296,0.72493 0.0299,-0.15494 -1.692283,-0.83731 -0.07036,-0.0279 -0.05079,0.14261 -0.07844,0.21306 -0.09594,0.24443 -0.206237,0.48082 -0.323001,0.71579 -0.641982,1.16136 -0.143404,0.78789 1.57847,1.75578 0.48918,-0.008 0.976858,-0.0593 1.465162,-0.0898 0.827508,-0.005 1.449972,0.55265 -1.195088,-0.85907 -0.03089,-0.0165 0.06096,0.0403 0.077,0.0714 0.02466,0.0478 0.02691,0.10422 0.04037,0.15633 -0.0034,0.63374 -0.210151,1.24899 -0.368575,1.85778 -0.05016,0.30677 -0.215045,0.60989 -0.168418,0.92452 1.932437,1.01831 1.390266,1.15566 2.642473,0.60955 0.07154,-0.004 0.185582,-0.13251 0.265192,-0.0958 0.01987,0.009 0.0594,0.0623 0.04013,0.0519 -1.649154,-0.88898 -1.986997,-1.44929 -1.584063,-0.82097 0.119896,0.41633 0.105672,0.85661 0.125711,1.28583 0.0912,1.01845 0.759262,1.0083 1.986346,1.53668 0.06678,0.0288 0.458269,-0.222 0.583914,-0.2968 0.702424,-0.49956 1.295482,-1.13125 1.87452,-1.7649 0.594943,-0.6821 0.902055,-0.50574 -1.34617,-1.07374 -0.11071,-0.028 0.03667,0.22588 0.0425,0.33992 0.0081,0.1587 -5.3e-4,0.31782 -7.94e-4,0.47674 -0.04187,0.81588 -0.186516,1.62195 -0.315574,2.42746 -0.16597,0.98408 0.02439,0.74093 1.798577,1.26219 0.08987,0.0264 0.10338,-0.15626 0.153159,-0.23561 0.07177,-0.11442 0.14097,-0.23043 0.211458,-0.34564 0.620445,-1.00927 1.158607,-2.06531 1.70022,-3.118 0.284464,-0.54238 0.574162,-1.08165 0.842828,-1.63213 0.195659,-0.40945 0.177493,-0.15696 -1.662997,-0.90915 -0.05614,-0.0229 0.0042,0.12124 0.0053,0.18188 0.0011,0.0645 0.0011,0.12909 0.0013,0.19364 0.02352,0.0194 -0.0132,0.51412 -0.01117,0.51522 1.862349,1.01201 1.42916,1.45178 1.984187,0.71371 0.43906,-0.77043 0.634085,-1.64397 0.817743,-2.50278 0.07796,-0.41196 0.147449,-0.82577 0.19817,-1.24203 -0.266279,0.61713 0.02713,0.10795 -1.640038,-0.7428 -0.223348,-0.11398 0.22565,0.2327 0.368662,0.35015 2.071193,1.17656 1.818095,1.51028 3.166785,0.0598 0.519837,-0.58938 0.947279,-1.25219 1.362839,-1.9171 0.02777,-0.0455 0.05575,-0.0909 0.08332,-0.13657 0.02323,-0.0385 0.08527,-0.14911 0.08566,-0.10416 0.0079,0.89637 -1.971805,-1.66131 -1.59249,-0.63544 0.112191,0.49725 0.195403,0.99957 0.328528,1.49195 0.821197,2.08722 1.855599,1.39104 2.616623,0.58331 0.229084,-0.1609 0.422796,-0.5966 0.662358,-0.72957 0.02096,0.73204 0.02911,-0.0375 -1.616297,-0.79692 -0.06702,-0.0309 0.07191,0.12971 0.09643,0.19934 0.133758,0.37983 0.176549,0.80015 0.241623,1.19471 0.150961,0.85862 0.270671,1.72651 0.537123,2.55889 0.368837,0.81318 0.997548,0.86775 2.048413,1.30769 0.0766,0.0321 0.5642,-0.39695 0.62376,-0.4505 0.25985,-0.26286 0.50415,-0.54111 0.73173,-0.83233 0.56305,0.34192 -0.88448,-0.53813 -1.65627,-0.78169 -0.0888,-0.028 0.0295,0.18406 0.0367,0.27689 0.0282,0.36613 0.0107,0.73746 0.004,1.104 0.0124,0.52394 -0.0701,1.1248 0.27375,1.56092 2.06851,1.31319 1.35209,0.97022 2.80348,1.04145 0.0389,0.0149 0.0777,0.0298 0.11659,0.0447 -0.53669,-0.29401 -1.04958,-0.63638 -1.61006,-0.88201 -0.0662,-0.029 0.0592,0.13424 0.0677,0.20603 0.0154,0.13062 0.0113,0.26329 0.003,0.39459 -0.0221,0.36329 -0.10068,0.76068 -0.16091,1.11603 -0.18708,0.96273 -0.43026,1.91317 -0.64423,2.87009 -0.26548,1.12586 0.40417,0.88214 1.75551,1.65673 -0.54202,-0.30697 -1.06511,-0.65007 -1.62606,-0.92091 -0.0585,-0.0283 0.0682,0.11302 0.0836,0.17618 0.0301,0.1238 0.0429,0.25164 0.0515,0.37877 0.0397,0.58664 -0.0208,1.17705 -0.0671,1.76102 -0.074,0.96094 -0.18713,1.91836 -0.33188,2.87109 -0.0811,0.87908 0.39696,0.59712 1.81845,1.18027 0.0507,0.0208 0.31571,-0.34298 0.34799,-0.38275 0.51008,-0.6686 0.66401,-0.42245 -1.48525,-0.97626 -0.0959,-0.0247 0.0162,0.1976 0.0163,0.29662 1.1e-4,0.12466 -0.0105,0.2491 -0.0157,0.37366 -0.0734,0.87864 -0.19357,1.75305 -0.20806,2.63544 -0.009,1.24824 1.47339,1.92234 2.61625,1.89604 0.25439,0.002 0.50081,-0.10539 0.75437,-0.10679 0.15605,-8e-4 0.15661,0.0225 0.27171,0.10113 -0.53528,-0.29996 -1.07056,-0.59992 -1.60584,-0.89988 0.14254,0.26428 0.0789,0.60086 0.0432,0.88922 0.0798,0.81023 0.009,0.47675 1.93613,1.00857 0.14395,0.0397 0.2515,-0.16106 0.37693,-0.24209 0.57545,-0.37173 1.1533,-0.73552 1.74059,-1.08834 0.21973,-0.11806 0.76388,-0.45351 1.05714,-0.46212 0.14821,-0.004 0.55503,0.20352 0.42427,0.13363 -0.41509,-0.22186 -0.8114,-0.5787 -1.28187,-0.59202 -0.20808,-0.006 0.20958,0.364 0.26952,0.56335 0.0761,0.25307 0.0899,0.52084 0.13482,0.78126 0.0971,1.65334 -0.36602,3.24631 -0.8672,4.80136 -0.43903,1.29282 -0.767,1.29912 1.49105,1.93318 0.13559,0.0381 0.15936,-0.23224 0.23882,-0.34851 0.0994,-0.14541 0.19849,-0.29101 0.29774,-0.43651 0.53836,-0.67158 0.90059,-1.56548 1.62601,-2.06685 0.70286,0.43655 -0.74971,-0.47149 -1.40069,-0.67831 -0.11317,-0.036 0.11114,0.21067 0.15229,0.32206 0.16007,0.43324 0.22272,0.90133 0.29632,1.35441 0.0531,0.36892 0.11719,0.7361 0.1794,1.10355 0,0 1.74352,0.84798 1.74352,0.84798 v 0 c -0.0761,-0.36933 -0.14968,-0.73922 -0.20744,-1.11197 -0.19473,-1.19758 -0.43354,-3.31095 -2.41744,-2.87749 -0.6679,0.59845 -1.0519,1.4466 -1.60669,2.1406 -0.10573,0.13864 -0.2064,0.2813 -0.31719,0.41593 -0.0736,0.0895 -0.31795,0.17427 -0.23552,0.25573 3.12077,3.08428 1.44802,1.50886 1.56423,0.88616 0.0534,-0.28599 0.20204,-0.54916 0.24378,-0.83803 0.45505,-1.59559 0.91209,-3.21205 0.87473,-4.88835 -0.0196,-0.18248 -0.073,-1.23858 -0.29999,-1.43436 -0.13266,-0.11444 -1.61239,-1.4673 -2.47619,-1.32885 -0.28984,0.0465 -0.82078,0.38317 -1.04758,0.51254 -0.58875,0.35587 -1.17172,0.73315 -1.78101,1.05355 -0.12696,0.0668 -0.49017,0.0785 -0.39024,0.18137 1.09211,1.12475 2.14241,0.8373 1.43429,1.01462 0.0296,-0.34385 0.061,-0.6913 0.0244,-1.0357 -2.14388,-1.31877 -1.22719,-1.13055 -2.81168,-1.01315 -0.0894,-0.008 -0.18024,-0.006 -0.26824,-0.0238 -0.0805,-0.0162 -0.30223,-0.12261 -0.2338,-0.0773 0.47581,0.31518 0.97476,0.59396 1.46214,0.89094 -0.0502,-0.0482 -0.11265,-0.0862 -0.15054,-0.1446 -0.10247,-0.15781 -0.10689,-0.33768 -0.13371,-0.51625 -0.022,-0.87975 0.0918,-1.75309 0.19859,-2.62494 0.0115,-0.12675 0.0263,-0.25326 0.0346,-0.38026 0.007,-0.10507 0.0916,-0.24764 0.0113,-0.31568 -1.73057,-1.46545 -1.3878,-1.67143 -1.9612,-0.89626 -0.0619,0.0751 -0.13045,0.16638 -0.20768,0.22776 -0.0271,0.0215 -0.11937,0.0319 -0.0904,0.0508 0.53405,0.34825 1.11073,0.62725 1.65054,0.96652 0.0248,0.0156 -0.0677,0.0394 -0.0861,0.0167 -0.0298,-0.0367 -0.01,-0.094 -0.0148,-0.141 0.08,-0.97134 0.17402,-1.94134 0.2666,-2.91154 0.0676,-0.71615 0.15199,-1.43935 0.11657,-2.15993 -0.004,-0.085 0.0452,-0.20342 -0.0231,-0.25416 -0.5514,-0.40969 -1.17373,-0.71407 -1.76059,-1.0711 0.54063,0.31985 1.0845,0.63429 1.62189,0.95956 0.0318,0.0192 -0.0791,-0.0149 -0.10247,-0.0437 -0.0948,-0.11672 -0.002,-0.30841 2.3e-4,-0.4334 0.16045,-0.97409 0.38546,-1.93496 0.59065,-2.90025 0.28905,-1.42289 0.82071,-2.75787 -1.66935,-2.92438 -0.17621,0.004 -0.35323,0.0162 -0.52947,0.007 -0.72922,-0.0373 -1.503723,-0.69967 1.14101,0.84953 -0.0494,-0.026 -0.10677,-0.0406 -0.14807,-0.0781 -0.29893,-0.27166 -0.20085,-0.98828 -0.23264,-1.3424 0.007,-0.32416 0.34862,-4.65495 -1.80814,-2.48745 -0.195147,0.29398 -0.420405,0.56854 -0.67676,0.81139 -0.124542,0.10137 -0.23981,0.2125 -0.391684,0.27416 -0.05028,0.0204 -0.204171,8e-5 -0.159768,0.0313 0.494442,0.34744 1.031433,0.63 1.547742,0.94404 0.045,0.0274 -0.0967,-0.0467 -0.13388,-0.0841 -0.0484,-0.0486 -0.0785,-0.11251 -0.1178,-0.16876 -0.324481,-0.81211 -0.453833,-1.68143 -0.586974,-2.54148 -0.118956,-0.8429 -0.27079,-3.44682 -2.120291,-2.49091 -0.229799,0.23987 -0.392848,0.54198 -0.638911,0.76921 -0.116538,0.1189 -0.242911,0.26118 -0.383683,0.35471 -0.05192,0.0345 -0.107955,0.0671 -0.168875,0.0804 -0.03755,0.008 -0.145809,-0.0401 -0.113684,-0.019 1.676609,1.09968 1.907381,1.46898 1.484847,0.85416 -0.1574,-0.48323 -0.256619,-0.98085 -0.333679,-1.48294 -0.138443,-1.02687 -1.684229,-2.01561 -2.039763,-0.95179 -0.363929,0.67768 -0.774959,1.33529 -1.300416,1.90105 -0.260787,0.26609 -0.529276,0.58805 -0.882373,0.73877 -0.06373,0.0272 -0.134016,0.0416 -0.203282,0.0434 -0.05298,10e-4 -0.200181,-0.062 -0.1554,-0.0336 0.503216,0.31856 1.025467,0.60601 1.5382,0.90901 -0.685138,-0.41129 -1.847133,-2.20467 -2.323811,-1.24259 -0.0027,0.41964 -0.06205,0.83719 -0.125027,1.25118 -0.154148,0.83121 -0.338992,1.67923 -0.806534,2.3982 -0.563375,0.5872 -0.20854,0.13161 1.474639,1.17551 0.01865,0.0116 -0.01545,-0.0416 -0.01775,-0.0634 -0.01535,-0.1458 0.01,-0.29581 -0.0021,-0.44175 5.29e-4,-0.0824 0.0031,-0.37863 0.0026,-0.37895 -1.134282,-0.91698 -1.502413,-1.81535 -1.814846,-0.94626 -0.222073,0.56965 -0.499486,1.11404 -0.767728,1.66288 -0.519309,1.05574 -1.047832,2.11163 -1.714987,3.08396 -0.07655,0.10826 -0.150254,0.21859 -0.229653,0.32478 -0.04979,0.0666 -0.222668,0.14138 -0.157705,0.1933 0.505031,0.40357 1.112684,0.65894 1.658236,1.00578 0.01947,0.0124 -0.05765,0.0246 -0.06912,0.005 -0.05477,-0.0957 0.07532,-0.24429 0.01865,-0.3303 0.09176,-0.82193 0.223956,-1.6392 0.288671,-2.46401 0.0097,-0.1601 0.02254,-0.32003 0.029,-0.48028 0.005,-0.12369 0.09983,-0.29129 0.0054,-0.37132 -1.680009,-1.42371 -1.434822,-1.6056 -2.091367,-0.76668 -0.532292,0.64412 -1.108136,1.26974 -1.82549,1.71094 -0.104865,0.0478 -0.204483,0.10935 -0.314592,0.14334 -0.07135,0.022 -0.282769,-0.022 -0.222864,0.0226 0.481428,0.35823 1.019606,0.6331 1.52941,0.94965 -0.03517,-0.0273 -0.0793,-0.0459 -0.105502,-0.0819 -0.06646,-0.0913 -0.07536,-0.23477 -0.09242,-0.33767 -0.03302,-0.44288 -0.01794,-0.88923 -0.08522,-1.32957 -0.167405,-0.88176 -1.40706,-1.54121 -2.151748,-1.06019 -1.100828,0.49322 -1.357905,-0.0103 0.84692,1.21155 -0.02929,0.0133 -0.05582,0.0426 -0.08786,0.0398 -0.05277,-0.005 -0.01461,-0.10657 -0.0057,-0.15879 0.03482,-0.20545 0.07527,-0.40992 0.120626,-0.6133 0.148307,-0.6351 0.350473,-1.26222 0.424098,-1.91153 -1.8e-4,-0.005 -0.0043,-0.34942 -0.03634,-0.37017 -1.236006,-0.80153 -1.284132,-1.06953 -2.240285,-1.0063 -0.475716,0.0391 -0.964751,0.11043 -1.437746,0.0263 0.519633,0.31773 1.047803,0.6219 1.558901,0.95319 0.025,0.0162 -0.06547,0.0171 -0.08937,-5.3e-4 -0.01926,-0.0143 -0.0122,-0.048 -0.0077,-0.0717 0.03224,-0.17036 0.16768,-0.30814 0.219898,-0.47029 0.116359,-0.24026 0.227764,-0.48219 0.333822,-0.72721 0.03251,-0.0751 0.153424,-0.16787 0.09585,-0.22602 -1.388706,-1.40239 -0.984954,-1.57318 -1.65921,-1.24153 -0.279763,0.0893 -0.564081,0.16556 -0.857256,0.19556 -0.15495,0.0145 -0.261149,0.0306 -0.416909,0.0207 -0.06105,-0.004 -0.23292,-0.0591 -0.181702,-0.0257 0.470209,0.30704 1.937371,1.13289 1.433001,0.88594 -0.0302,-0.0148 -0.05265,-0.0418 -0.07898,-0.0627 -0.167505,-0.34808 -0.02394,-0.79235 -0.09833,-1.16258 -0.01968,-0.34623 -0.04605,-0.686 -0.119759,-1.02544 -0.01402,-0.0646 0.01125,-0.15683 -0.04382,-0.19345 -0.57303,-0.38115 -1.194046,-0.6847 -1.791068,-1.02704 -0.287176,0.0465 -0.542285,0.20603 -0.807315,0.31797 -0.199642,0.0847 -0.404392,0.18133 -0.620842,0.21557 -0.06086,0.01 -0.123354,0.0167 -0.184587,0.01 -0.05021,-0.006 -0.186841,-0.0738 -0.144201,-0.0467 0.509702,0.32403 1.032741,0.62659 1.549112,0.93988 -0.350398,-0.25801 -0.1304,-0.86598 -0.147754,-1.2298 0.04413,-0.58082 0.13902,-1.1617 0.134147,-1.7433 -2.085473,-1.14751 -1.325325,-1.2447 -2.610102,-0.55268 -0.563464,0.29923 -1.129149,0.66659 -1.77369,0.74562 -0.716253,-0.23391 -0.325424,-0.11879 1.431896,0.94226 0.02622,0.0158 -0.04726,-0.0435 -0.05599,-0.0728 -0.03082,-0.10364 0.01037,-0.28615 0.02466,-0.37467 0.01691,-0.10474 0.03584,-0.20915 0.05376,-0.31373 0.237291,-1.20353 0.568161,-2.38665 0.971708,-3.54511 0.302599,-0.83726 0.663014,-1.69565 0.702294,-2.59491 -1.83004,-1.0299 -1.462815,-1.3967 -2.562971,-0.48422 -0.731723,0.72214 -1.318709,1.56559 -1.91194,2.40174 -0.736552,0.99162 -1.510329,1.95489 -2.278086,2.92241 0,0 1.681919,0.99603 1.681919,0.99603 z" />
  </g>
</svg>
