<?xml version="1.0" encoding="UTF-8" standalone="no"?>
<!-- Created with Inkscape (http://www.inkscape.org/) -->

<svg
   width="39.873051mm"
   height="37.83646mm"
   viewBox="0 0 39.873051 37.83646"
   version="1.1"
   id="svg5"
   inkscape:export-filename="up.svg"
   inkscape:export-xdpi="96"
   inkscape:export-ydpi="96"
   xmlns:inkscape="http://www.inkscape.org/namespaces/inkscape"
   xmlns:sodipodi="http://sodipodi.sourceforge.net/DTD/sodipodi-0.dtd"
   xmlns="http://www.w3.org/2000/svg"
   xmlns:svg="http://www.w3.org/2000/svg">
  <sodipodi:namedview
     id="namedview7"
     pagecolor="#ffffff"
     bordercolor="#000000"
     borderopacity="0.25"
     inkscape:showpageshadow="2"
     inkscape:pageopacity="0.0"
     inkscape:pagecheckerboard="0"
     inkscape:deskcolor="#d1d1d1"
     inkscape:document-units="mm"
     showgrid="false" />
  <defs
     id="defs2" />
  <g
     inkscape:label="Layer 1"
     inkscape:groupmode="layer"
     id="layer1"
     transform="translate(-71.949219,-118.25488)">
    <path
       id="path447"
       style="fill:#00d400;stroke-width:0.264583"
       sodipodi:type="inkscape:offset"
       inkscape:radius="0"
       inkscape:original="M 77.148438 118.28906 C 76.873969 118.18269 76.690703 118.31915 76.140625 118.77539 C 75.408902 119.49753 74.821747 120.34158 74.228516 121.17773 C 73.491964 122.16935 72.716976 123.13209 71.949219 124.09961 L 73.632812 125.0957 C 74.316458 124.07062 75.097421 123.11513 75.832031 122.12695 C 75.920092 122.00362 76.033968 121.90192 76.123047 121.7793 C 75.843922 122.67798 75.562726 123.57639 75.337891 124.49023 C 75.069279 125.51069 75.034313 126.8306 77.166016 126.37695 C 77.503239 126.27838 77.803257 126.09276 78.115234 125.93359 C 78.086893 126.36283 77.964723 126.81904 78.158203 127.2207 C 79.472848 128.05407 79.789659 128.23911 80.402344 128.08594 C 80.42285 128.43263 80.382916 128.78302 80.445312 129.125 C 80.760955 129.76686 81.290117 130.04992 81.869141 130.18945 C 81.230132 131.34651 81.727145 130.97645 83.447266 131.94336 C 83.529459 131.94202 83.611241 131.93122 83.693359 131.92773 C 83.61796 132.31279 83.564964 132.70284 83.466797 133.08008 C 83.416637 133.38685 83.250248 133.68928 83.296875 134.00391 C 84.198703 134.47913 84.509747 134.72437 84.767578 134.83594 C 84.769663 134.90278 84.784007 134.96872 84.787109 135.03516 C 84.878309 136.05361 85.546354 136.04193 86.773438 136.57031 C 86.840217 136.59911 87.231777 136.34824 87.357422 136.27344 C 87.488259 136.18039 87.583167 136.04669 87.707031 135.94531 C 87.668416 136.18933 87.650367 136.43603 87.611328 136.67969 C 87.450127 137.63549 87.680627 137.45081 89.316406 137.91602 C 89.309564 137.90349 89.319838 137.88709 89.318359 137.87305 C 89.340982 137.88701 89.364294 137.89981 89.386719 137.91406 C 89.404032 137.92509 89.345581 137.92948 89.324219 137.91797 C 89.368799 137.93068 89.363399 137.92767 89.410156 137.94141 C 89.500026 137.96781 89.512721 137.78638 89.5625 137.70703 C 89.63427 137.59261 89.704903 137.47654 89.775391 137.36133 C 90.395836 136.35206 90.932996 135.29488 91.474609 134.24219 C 91.614677 133.97512 91.751155 133.70672 91.890625 133.43945 C 92.064515 133.58332 92.298503 133.51945 92.388672 133.45312 C 92.410043 133.46616 92.407871 133.45913 92.429688 133.47266 C 92.440709 133.47951 92.428295 133.4541 92.419922 133.43555 C 92.480439 133.37963 92.515742 133.46492 92.634766 133.30664 C 93.073826 132.53621 93.269467 131.66154 93.453125 130.80273 C 93.513551 130.48343 93.560016 130.16165 93.605469 129.83984 C 94.249836 130.185 94.642446 130.1991 95.544922 129.22852 C 95.761855 128.98256 95.922677 128.69408 96.113281 128.42773 C 96.702821 129.43837 97.328925 129.27784 97.910156 128.83203 C 98.029774 129.53958 98.132471 130.25307 98.351562 130.9375 C 98.69874 131.70293 99.306987 131.80838 100.25 132.18359 C 100.26184 132.5121 100.2075 132.8591 100.41406 133.12109 C 101.28632 133.67485 101.53781 133.83312 101.79102 133.95312 C 101.7668 134.30911 101.69157 134.69631 101.63281 135.04297 C 101.44573 136.0057 101.20225 136.95519 100.98828 137.91211 C 100.87929 138.37431 101.02225 138.5354 101.21094 138.70117 C 101.17937 138.68537 101.15094 138.66379 101.11914 138.64844 C 101.06064 138.62014 101.18773 138.76106 101.20312 138.82422 C 101.23323 138.94802 101.24531 139.076 101.25391 139.20312 C 101.29361 139.78976 101.2338 140.38087 101.1875 140.96484 C 101.1135 141.92578 101.00022 142.88321 100.85547 143.83594 C 100.80636 144.36822 101.0655 144.50794 101.51172 144.63867 C 101.43913 145.41243 101.3409 146.1851 101.32812 146.96289 C 101.32053 148.01643 102.38594 148.55327 103.40234 148.71289 C 103.3967 148.75637 103.41338 148.79997 103.4082 148.8418 C 103.488 149.65203 103.41662 149.31974 105.34375 149.85156 C 105.4877 149.89126 105.59527 149.69041 105.7207 149.60938 C 106.29615 149.23764 106.87365 148.87235 107.46094 148.51953 C 107.56348 148.46444 107.7697 148.39916 107.95508 148.30469 C 108.00159 148.516 108.02956 148.73172 108.06641 148.94531 C 108.16351 150.59865 107.7004 152.19104 107.19922 153.74609 C 106.87485 154.70127 106.97644 154.98007 107.77148 155.30273 C 108.8537 156.37015 108.79363 156.20843 108.67188 155.67188 C 108.68317 155.67505 108.67803 155.67648 108.68945 155.67969 C 108.82504 155.71779 108.84827 155.44635 108.92773 155.33008 C 109.02713 155.18467 109.12731 155.04003 109.22656 154.89453 C 109.45944 154.60403 109.71907 154.32393 109.92969 154 C 109.97707 154.31033 110.02768 154.62017 110.08008 154.92969 L 111.82227 155.77734 C 111.74617 155.40801 111.67299 155.03681 111.61523 154.66406 C 111.42699 153.50638 111.16269 151.5421 109.35547 151.80078 C 109.47611 151.11891 109.7363 150.45966 109.7207 149.75977 C 109.7011 149.57729 109.64887 148.52 109.42188 148.32422 C 109.28921 148.20978 107.80911 146.85764 106.94531 146.99609 C 106.65547 147.04259 106.12524 147.37844 105.89844 147.50781 C 105.45116 147.77817 104.9996 148.04785 104.54492 148.30859 C 103.95364 147.90551 103.37279 147.67699 103.06055 147.69141 C 103.05367 146.86143 103.14722 146.03607 103.24805 145.21289 C 103.25955 145.08614 103.2749 144.96098 103.2832 144.83398 C 103.2902 144.72891 103.37327 144.58562 103.29297 144.51758 C 103.20106 144.43975 103.22324 144.45163 103.14258 144.38086 C 103.24382 144.236 103.04167 144.03943 102.66602 143.94531 C 102.66358 143.94297 102.66062 143.94178 102.6582 143.93945 C 102.7209 143.23633 102.7845 142.53282 102.85156 141.83008 C 102.91916 141.11393 103.00222 140.3905 102.9668 139.66992 C 102.9628 139.58492 103.01166 139.46676 102.94336 139.41602 C 102.39196 139.00633 101.77045 138.70273 101.18359 138.3457 C 101.69028 138.64547 102.19874 138.9405 102.70312 139.24414 C 102.62632 139.12654 102.70099 138.94805 102.70312 138.82812 C 102.86357 137.85404 103.08778 136.89302 103.29297 135.92773 C 103.56375 134.59478 103.95387 133.37625 101.9668 133.08594 C 101.95286 132.83737 101.87078 132.61004 101.85547 132.43945 C 101.86247 132.11529 102.20363 127.78367 100.04688 129.95117 C 99.967726 130.07041 99.862559 130.16923 99.773438 130.28125 C 99.704543 129.92323 99.583018 129.57839 99.527344 129.21875 C 99.408388 128.37585 99.257704 125.77065 97.408203 126.72656 C 97.300171 126.83933 97.20151 126.96186 97.107422 127.08789 C 96.792534 126.15746 95.542761 125.35085 95.214844 126.33203 C 94.850915 127.00971 94.43952 127.66666 93.914062 128.23242 C 93.680899 128.47033 93.425441 128.72962 93.125 128.89453 C 92.63045 128.429 92.154633 128.1077 91.886719 128.64844 C 91.884019 129.06808 91.824696 129.48445 91.761719 129.89844 C 91.660283 130.44541 91.430296 130.95659 91.230469 131.47656 C 90.944308 131.22732 90.75814 131.19616 90.597656 131.64258 C 90.375583 132.21223 90.09832 132.75585 89.830078 133.30469 C 89.730745 133.50663 89.602867 133.69316 89.501953 133.89453 C 89.45814 133.86771 89.173543 133.80502 89.082031 133.77539 C 88.268535 133.03112 88.090632 132.83601 87.566406 133.50586 C 87.236444 133.90514 86.822314 134.22086 86.435547 134.56641 C 86.321587 134.02838 85.825816 133.69072 85.277344 133.53711 C 85.40125 133.05803 85.541934 132.58127 85.597656 132.08984 C 85.597587 132.08791 85.586608 132.01222 85.583984 131.94727 C 85.581913 131.94584 85.587773 131.93649 85.582031 131.93359 C 85.577526 131.83351 85.579026 131.73267 85.560547 131.7207 C 84.575323 131.0818 84.269641 130.85049 83.732422 130.78711 C 83.788016 130.66609 83.845463 130.54621 83.898438 130.42383 C 83.930948 130.34873 84.051715 130.25542 83.994141 130.19727 C 83.949441 130.15213 83.96491 130.15785 83.923828 130.11523 C 83.910301 130.30951 83.870262 130.358 83.673828 130.15625 C 83.753798 130.13335 83.835049 130.11185 83.916016 130.10547 C 82.697727 128.83781 82.984027 128.63729 82.333984 128.95703 C 82.274008 128.97618 82.210828 128.98043 82.150391 128.99805 C 82.147592 128.93394 82.146995 128.86751 82.134766 128.80664 C 82.115086 128.46041 82.089334 128.12069 82.015625 127.78125 C 82.001605 127.71665 82.025773 127.62451 81.970703 127.58789 C 81.397673 127.20674 80.77671 126.90484 80.179688 126.5625 C 80.055272 126.58265 79.945871 126.6497 79.830078 126.69922 C 79.876123 126.14182 79.963661 125.58353 79.958984 125.02539 C 77.873511 123.87788 78.632433 123.78064 77.347656 124.47266 C 77.324072 124.48518 77.297035 124.49117 77.273438 124.50391 C 77.485174 123.61191 77.698261 122.71972 78 121.85352 C 78.302599 121.01626 78.663845 120.15903 78.703125 119.25977 C 77.788105 118.74482 77.422906 118.39544 77.148438 118.28906 z M 83.916016 130.10547 C 83.920721 130.11036 83.919076 130.11031 83.923828 130.11523 C 83.926668 130.07444 83.959884 130.16184 83.962891 130.0957 C 83.947159 130.09598 83.931682 130.10423 83.916016 130.10547 z M 102.70312 139.24414 C 102.70637 139.24911 102.69928 139.25699 102.70312 139.26172 C 102.7265 139.29052 102.83649 139.32389 102.80469 139.30469 C 102.77095 139.28427 102.73691 139.26448 102.70312 139.24414 z M 89.324219 137.91797 C 89.32019 137.91682 89.320417 137.91716 89.316406 137.91602 C 89.316716 137.91658 89.316083 137.9174 89.316406 137.91797 C 89.317677 137.92014 89.321558 137.91654 89.324219 137.91797 z M 93.083984 129.55469 C 93.192531 129.62181 93.29708 129.66773 93.386719 129.7207 C 93.345239 129.68487 93.161592 129.62451 93.083984 129.55469 z M 83.345703 131.63477 C 83.377219 131.65492 83.410013 131.67301 83.441406 131.69336 C 83.466406 131.70956 83.375462 131.71099 83.351562 131.69336 C 83.33596 131.68177 83.342114 131.65618 83.345703 131.63477 z M 86.205078 134.51758 C 86.224948 134.52658 86.265364 134.58071 86.246094 134.57031 C 86.210001 134.55086 86.212577 134.54648 86.177734 134.52734 C 86.186566 134.52794 86.196891 134.5138 86.205078 134.51758 z M 105.16406 149.61914 C 105.41278 149.68578 105.4846 149.67657 105.16016 149.75781 C 105.16412 149.71175 105.1602 149.66532 105.16406 149.61914 z "
       d="m 77.148438,118.28906 c -0.274469,-0.10637 -0.457735,0.0301 -1.007813,0.48633 -0.731723,0.72214 -1.318878,1.56619 -1.912109,2.40234 -0.736552,0.99162 -1.51154,1.95436 -2.279297,2.92188 l 1.683593,0.99609 c 0.683646,-1.02508 1.464609,-1.98057 2.199219,-2.96875 0.08806,-0.12333 0.201937,-0.22503 0.291016,-0.34765 -0.279125,0.89868 -0.560321,1.79709 -0.785156,2.71093 -0.268612,1.02046 -0.303578,2.34037 1.828125,1.88672 0.337223,-0.0986 0.637241,-0.28419 0.949218,-0.44336 -0.02834,0.42924 -0.150511,0.88545 0.04297,1.28711 1.314645,0.83337 1.631456,1.01841 2.244141,0.86524 0.02051,0.34669 -0.01943,0.69708 0.04297,1.03906 0.315643,0.64186 0.844805,0.92492 1.423829,1.06445 -0.639009,1.15706 -0.141996,0.787 1.578125,1.75391 0.08219,-0.001 0.163975,-0.0121 0.246093,-0.0156 -0.0754,0.38506 -0.128395,0.77511 -0.226562,1.15235 -0.05016,0.30677 -0.216549,0.6092 -0.169922,0.92383 0.901828,0.47522 1.212872,0.72046 1.470703,0.83203 0.0021,0.0668 0.01643,0.13278 0.01953,0.19922 0.0912,1.01845 0.759245,1.00677 1.986329,1.53515 0.06678,0.0288 0.458339,-0.22207 0.583984,-0.29687 0.130837,-0.0931 0.225745,-0.22675 0.349609,-0.32813 -0.03862,0.24402 -0.05666,0.49072 -0.0957,0.73438 -0.161201,0.9558 0.0693,0.77112 1.705078,1.23633 -0.0068,-0.0125 0.0034,-0.0289 0.002,-0.043 0.02262,0.014 0.04594,0.0268 0.06836,0.041 0.01731,0.011 -0.04114,0.0154 -0.0625,0.004 0.04458,0.0127 0.03918,0.01 0.08594,0.0234 0.08987,0.0264 0.102565,-0.15503 0.152344,-0.23438 0.07177,-0.11442 0.142403,-0.23049 0.212891,-0.3457 0.620445,-1.00927 1.157605,-2.06645 1.699218,-3.11914 0.140068,-0.26707 0.276546,-0.53547 0.416016,-0.80274 0.17389,0.14387 0.407878,0.08 0.498047,0.0137 0.02137,0.013 0.0192,0.006 0.04102,0.0195 0.01102,0.007 -0.0014,-0.0186 -0.0098,-0.0371 0.06052,-0.0559 0.09582,0.0294 0.214844,-0.12891 0.43906,-0.77043 0.634701,-1.6451 0.818359,-2.50391 0.06043,-0.3193 0.106891,-0.64108 0.152344,-0.96289 0.644367,0.34516 1.036977,0.35926 1.939453,-0.61132 0.216933,-0.24596 0.377755,-0.53444 0.568359,-0.80079 0.58954,1.01064 1.215644,0.85011 1.796875,0.4043 0.119618,0.70755 0.222315,1.42104 0.441406,2.10547 0.347178,0.76543 0.955425,0.87088 1.898438,1.24609 0.0118,0.32851 -0.0425,0.67551 0.16406,0.9375 0.87226,0.55376 1.12375,0.71203 1.37696,0.83203 -0.0242,0.35599 -0.0995,0.74319 -0.15821,1.08985 -0.18708,0.96273 -0.43056,1.91222 -0.64453,2.86914 -0.10899,0.4622 0.034,0.62329 0.22266,0.78906 -0.0316,-0.0158 -0.06,-0.0374 -0.0918,-0.0527 -0.0585,-0.0283 0.0686,0.11262 0.084,0.17578 0.0301,0.1238 0.0422,0.25178 0.0508,0.3789 0.0397,0.58664 -0.0201,1.17775 -0.0664,1.76172 -0.074,0.96094 -0.18728,1.91837 -0.33203,2.8711 -0.0491,0.53228 0.21003,0.672 0.65625,0.80273 -0.0726,0.77376 -0.17082,1.54643 -0.1836,2.32422 -0.008,1.05354 1.05782,1.59038 2.07422,1.75 -0.006,0.0435 0.011,0.0871 0.006,0.12891 0.0798,0.81023 0.008,0.47794 1.93555,1.00976 0.14395,0.0397 0.25152,-0.16115 0.37695,-0.24218 0.57545,-0.37174 1.15295,-0.73703 1.74024,-1.08985 0.10254,-0.0551 0.30876,-0.12037 0.49414,-0.21484 0.0465,0.21131 0.0745,0.42703 0.11133,0.64062 0.0971,1.65334 -0.36601,3.24573 -0.86719,4.80078 -0.32437,0.95518 -0.22278,1.23398 0.57226,1.55664 1.08222,1.06742 1.02215,0.9057 0.9004,0.36915 0.0113,0.003 0.006,0.005 0.0176,0.008 0.13559,0.0381 0.15882,-0.23334 0.23828,-0.34961 0.0994,-0.14541 0.19958,-0.29005 0.29883,-0.43555 0.23288,-0.2905 0.49251,-0.5706 0.70313,-0.89453 0.0474,0.31033 0.098,0.62017 0.15039,0.92969 l 1.74219,0.84765 c -0.0761,-0.36933 -0.14928,-0.74053 -0.20704,-1.11328 -0.18824,-1.15768 -0.45254,-3.12196 -2.25976,-2.86328 0.12064,-0.68187 0.38083,-1.34112 0.36523,-2.04101 -0.0196,-0.18248 -0.0718,-1.23977 -0.29882,-1.43555 -0.13267,-0.11444 -1.61277,-1.46658 -2.47657,-1.32813 -0.28984,0.0465 -0.82007,0.38235 -1.04687,0.51172 -0.44728,0.27036 -0.89884,0.54004 -1.35352,0.80078 -0.59128,-0.40308 -1.17213,-0.6316 -1.48437,-0.61718 -0.007,-0.82998 0.0867,-1.65534 0.1875,-2.47852 0.0115,-0.12675 0.0268,-0.25191 0.0351,-0.37891 0.007,-0.10507 0.0901,-0.24836 0.01,-0.3164 -0.0919,-0.0778 -0.0697,-0.066 -0.15039,-0.13672 0.10124,-0.14486 -0.10091,-0.34143 -0.47656,-0.43555 -0.002,-0.002 -0.005,-0.004 -0.008,-0.006 0.0627,-0.70312 0.1263,-1.40663 0.19336,-2.10937 0.0676,-0.71615 0.15066,-1.43958 0.11524,-2.16016 -0.004,-0.085 0.0449,-0.20316 -0.0234,-0.2539 -0.5514,-0.40969 -1.17291,-0.71329 -1.75977,-1.07032 0.50669,0.29977 1.01515,0.5948 1.51953,0.89844 -0.0768,-0.1176 -0.002,-0.29609 0,-0.41602 0.16045,-0.97408 0.38466,-1.9351 0.58985,-2.90039 0.27078,-1.33295 0.6609,-2.55148 -1.32617,-2.84179 -0.0139,-0.24857 -0.096,-0.4759 -0.11133,-0.64649 0.007,-0.32416 0.34816,-4.65578 -1.80859,-2.48828 -0.07915,0.11924 -0.184321,0.21806 -0.273442,0.33008 -0.06889,-0.35802 -0.19042,-0.70286 -0.246094,-1.0625 -0.118956,-0.8429 -0.26964,-3.4481 -2.119141,-2.49219 -0.108032,0.11277 -0.206693,0.2353 -0.300781,0.36133 -0.314888,-0.93043 -1.564661,-1.73704 -1.892578,-0.75586 -0.363929,0.67768 -0.775324,1.33463 -1.300782,1.90039 -0.233163,0.23791 -0.488621,0.4972 -0.789062,0.66211 -0.49455,-0.46553 -0.970367,-0.78683 -1.238281,-0.24609 -0.0027,0.41964 -0.06202,0.83601 -0.125,1.25 -0.101436,0.54697 -0.331423,1.05815 -0.53125,1.57812 -0.286161,-0.24924 -0.472329,-0.2804 -0.632813,0.16602 -0.222073,0.56965 -0.499336,1.11327 -0.767578,1.66211 -0.09933,0.20194 -0.227211,0.38847 -0.328125,0.58984 -0.04381,-0.0268 -0.32841,-0.0895 -0.419922,-0.11914 -0.813496,-0.74427 -0.991399,-0.93938 -1.515625,-0.26953 -0.329962,0.39928 -0.744092,0.715 -1.130859,1.06055 -0.11396,-0.53803 -0.609731,-0.87569 -1.158203,-1.0293 0.123906,-0.47908 0.26459,-0.95584 0.320312,-1.44727 -6.9e-5,-0.002 -0.01105,-0.0776 -0.01367,-0.14257 -0.0021,-0.001 0.0038,-0.0108 -0.002,-0.0137 -0.0045,-0.10008 -0.003,-0.20092 -0.02148,-0.21289 -0.985224,-0.6389 -1.290906,-0.87021 -1.828125,-0.93359 0.05559,-0.12102 0.113041,-0.2409 0.166016,-0.36328 0.03251,-0.0751 0.153277,-0.16841 0.0957,-0.22656 -0.0447,-0.0451 -0.02923,-0.0394 -0.07031,-0.082 -0.01353,0.19428 -0.05357,0.24277 -0.25,0.041 0.07997,-0.0229 0.161221,-0.0444 0.242188,-0.0508 -1.218289,-1.26766 -0.931989,-1.46818 -1.582032,-1.14844 -0.05998,0.0191 -0.123156,0.0234 -0.183593,0.041 -0.0028,-0.0641 -0.0034,-0.13054 -0.01563,-0.19141 -0.01968,-0.34623 -0.04543,-0.68595 -0.119141,-1.02539 -0.01402,-0.0646 0.01015,-0.15674 -0.04492,-0.19336 -0.57303,-0.38115 -1.193993,-0.68305 -1.791015,-1.02539 -0.124416,0.0202 -0.233817,0.0872 -0.34961,0.13672 0.04605,-0.5574 0.133583,-1.11569 0.128906,-1.67383 -2.085473,-1.14751 -1.326551,-1.24475 -2.611328,-0.55273 -0.02358,0.0125 -0.05062,0.0185 -0.07422,0.0312 0.211736,-0.892 0.424823,-1.78419 0.726562,-2.65039 0.302599,-0.83726 0.663845,-1.69449 0.703125,-2.59375 -0.91502,-0.51495 -1.280219,-0.86433 -1.554687,-0.97071 z m 6.767578,11.81641 c 0.0047,0.005 0.0031,0.005 0.0078,0.01 0.0028,-0.0408 0.03606,0.0466 0.03906,-0.0195 -0.01573,2.8e-4 -0.03121,0.009 -0.04687,0.01 z m 18.787104,9.13867 c 0.003,0.005 -0.004,0.0129 0,0.0176 0.0234,0.0288 0.13337,0.0622 0.10157,0.043 -0.0337,-0.0204 -0.0678,-0.0402 -0.10157,-0.0606 z m -13.378901,-1.32617 c -0.004,-0.001 -0.0038,-8.1e-4 -0.0078,-0.002 3.1e-4,5.6e-4 -3.23e-4,0.001 0,0.002 0.0013,0.002 0.0052,-0.001 0.0078,0 z m 3.759765,-8.36328 c 0.108547,0.0671 0.213096,0.11304 0.302735,0.16601 -0.04148,-0.0358 -0.225127,-0.0962 -0.302735,-0.16601 z m -9.738281,2.08008 c 0.03152,0.0202 0.06431,0.0382 0.0957,0.0586 0.025,0.0162 -0.06594,0.0176 -0.08984,0 -0.0156,-0.0116 -0.0094,-0.0372 -0.0059,-0.0586 z m 2.859375,2.88281 c 0.01987,0.009 0.06029,0.0631 0.04102,0.0527 -0.03609,-0.0195 -0.03352,-0.0238 -0.06836,-0.043 0.0088,6e-4 0.01916,-0.0135 0.02734,-0.01 z m 18.958982,15.10156 c 0.24872,0.0666 0.32054,0.0574 -0.004,0.13867 0.004,-0.0461 4e-5,-0.0925 0.004,-0.13867 z"
       transform="matrix(1,0,0,-1,0,274.34622)" />
  </g>
</svg>
